<?xml version="1.0" encoding="UTF-8"?>
<svg xmlns="http://www.w3.org/2000/svg" xmlns:xlink="http://www.w3.org/1999/xlink" width="4000" height="4000" viewBox="0 0 4000 4000">
<defs>
<clipPath id="clip-0">
<path clip-rule="nonzero" d="M 527 363 L 3638 363 L 3638 3637 L 527 3637 Z M 527 363 "/>
</clipPath>
<clipPath id="clip-1">
<path clip-rule="evenodd" d="M 566.855469 2351.648438 C 548.550781 2351.648438 533.710938 2366.480469 533.710938 2384.789062 C 533.710938 2403.089844 548.550781 2417.929688 566.855469 2417.929688 C 585.15625 2417.929688 599.992188 2403.089844 599.992188 2384.789062 C 599.992188 2366.480469 585.15625 2351.648438 566.855469 2351.648438 Z M 3635.070312 2216.761719 C 3635.78125 2211.300781 3636.429688 2205.808594 3637.089844 2200.328125 L 3291.441406 2166.03125 C 3291.441406 2166.03125 3268.019531 2184.199219 3287.539062 2189.230469 C 3303.21875 2193.28125 3541.808594 2210.238281 3635.070312 2216.761719 Z M 3517.210938 1500.820312 L 3181.738281 1615.339844 C 3181.738281 1615.339844 3161.46875 1621.941406 3162.988281 1632.578125 C 3164.511719 1643.21875 3185.28125 1637.640625 3191.359375 1635.109375 C 3197.449219 1632.578125 3516.199219 1516.53125 3516.199219 1516.53125 C 3516.199219 1516.53125 3536.46875 1503.359375 3517.210938 1500.820312 Z M 679.9375 2961.578125 C 688.621094 2973.589844 697.46875 2985.46875 706.464844 2997.238281 L 790.890625 2944.941406 C 790.890625 2944.941406 856.035156 2908.398438 842.953125 2883.871094 C 829.875 2859.328125 799.777344 2877.179688 799.777344 2877.179688 Z M 531.839844 2688.039062 L 680.824219 2616.890625 C 680.824219 2616.890625 696.636719 2610.820312 700.890625 2623.578125 C 705.148438 2636.351562 671.097656 2648.511719 671.097656 2648.511719 L 550.082031 2697.769531 C 550.082031 2697.769531 538.523438 2703.089844 531.226562 2700.660156 C 523.929688 2698.230469 530.007812 2688.949219 531.839844 2688.039062 Z M 3431.300781 2695.800781 L 3047.25 2489.53125 C 3047.25 2489.53125 3040.621094 2485.820312 3033.800781 2492.429688 C 3026.988281 2499.039062 3039.078125 2507.710938 3044.011719 2511.21875 C 3048.941406 2514.730469 3426.980469 2709.078125 3426.980469 2709.078125 C 3426.980469 2709.078125 3435.269531 2711.179688 3437.199219 2705.03125 C 3439.128906 2698.878906 3431.300781 2695.800781 3431.300781 2695.800781 Z M 3507.789062 1948.710938 L 3062.859375 1979.808594 C 3062.859375 1979.808594 3045.628906 1989.789062 3060.839844 1998.269531 C 3076.039062 2006.75 3502.71875 1966.488281 3502.71875 1966.488281 C 3502.71875 1966.488281 3527.050781 1963.839844 3507.789062 1948.710938 Z M 1131.820312 3333.679688 L 1230.640625 3211.550781 C 1230.640625 3211.550781 1236.710938 3202.679688 1231.140625 3192.550781 C 1225.570312 3182.410156 1210.109375 3193.558594 1209.351562 3196.351562 C 1208.589844 3199.128906 1120.671875 3326.070312 1120.671875 3326.070312 C 1120.671875 3326.070312 1117.878906 3333.421875 1123.210938 3336.96875 C 1128.519531 3340.511719 1131.820312 3333.679688 1131.820312 3333.679688 Z M 2373.550781 2808.699219 C 2382.191406 2832.488281 2395.46875 2853.550781 2412.089844 2871.089844 C 2346.578125 2893.949219 2302.628906 2898.921875 2302.628906 2880.269531 C 2302.628906 2865.558594 2329.921875 2839.109375 2373.550781 2808.699219 Z M 1061.828125 1873.050781 L 1348.539062 1907.730469 C 1348.539062 1907.730469 1359.988281 1908.371094 1363.320312 1922.300781 C 1366.640625 1936.230469 1344.238281 1937.5 1335.121094 1937.980469 C 1326 1938.460938 1049.011719 1892.550781 1049.011719 1892.550781 C 1049.011719 1892.550781 1047.96875 1892.210938 1046.570312 1891.5 C 994.859375 1948.828125 920 1984.871094 836.714844 1984.871094 C 779.378906 1984.871094 726.046875 1967.78125 681.496094 1938.429688 C 716.8125 1954.300781 755.972656 1963.140625 797.195312 1963.140625 C 953.242188 1963.140625 1079.738281 1836.640625 1079.738281 1680.589844 C 1079.738281 1581.878906 1029.109375 1495.011719 952.421875 1444.488281 C 1029.910156 1479.308594 1088.851562 1548.050781 1110.371094 1631.789062 L 1448.761719 1791.300781 C 1448.761719 1791.300781 1458.140625 1797.460938 1452.820312 1802.589844 C 1447.5 1807.710938 1438.628906 1802.75 1438.628906 1802.75 L 1115.019531 1653.339844 C 1117.800781 1669.25 1119.261719 1685.621094 1119.261719 1702.328125 C 1119.261719 1721.421875 1117.359375 1740.070312 1113.75 1758.101562 C 1146.421875 1769.359375 1238.890625 1801.308594 1242.171875 1803.320312 C 1246.160156 1805.761719 1255.929688 1811.769531 1251.050781 1817.21875 C 1246.160156 1822.679688 1240.859375 1820.191406 1240.859375 1820.191406 L 1111.28125 1769.171875 C 1102 1807.441406 1084.921875 1842.648438 1061.828125 1873.050781 Z M 866.980469 3178 C 872.085938 3182.960938 877.183594 3187.941406 882.351562 3192.828125 L 971.3125 3120.539062 C 971.3125 3120.539062 987.65625 3108.121094 976.789062 3098.78125 C 965.921875 3089.429688 960.820312 3095.921875 960.820312 3095.921875 Z M 1806.640625 3556.328125 C 1806.640625 3556.328125 1824.988281 3336.878906 1826.53125 3333.671875 C 1828.070312 3330.480469 1836.410156 3313.128906 1847.96875 3327.679688 C 1859.53125 3342.230469 1824.238281 3565.351562 1824.238281 3565.351562 C 1824.238281 3565.351562 1808.128906 3578.96875 1806.640625 3556.328125 Z M 1503.570312 2850.449219 L 1559.46875 2740.078125 C 1559.46875 2740.078125 1560.679688 2734.589844 1554.570312 2731.191406 C 1548.460938 2727.800781 1542.039062 2728.839844 1538.640625 2734.941406 C 1535.25 2741.050781 1488.710938 2835.710938 1488.710938 2835.710938 C 1488.710938 2835.710938 1484.988281 2849.03125 1493.96875 2852.789062 C 1502.941406 2856.550781 1503.570312 2850.449219 1503.570312 2850.449219 Z M 1261.160156 2860.871094 L 1345.148438 2770.039062 C 1345.148438 2770.039062 1347.808594 2765.101562 1342.871094 2760.160156 C 1337.929688 2755.21875 1331.46875 2754.460938 1326.53125 2759.398438 C 1321.589844 2764.339844 1250.898438 2842.628906 1250.898438 2842.628906 C 1250.898438 2842.628906 1243.671875 2854.421875 1251.28125 2860.5 C 1258.871094 2866.578125 1261.160156 2860.871094 1261.160156 2860.871094 Z M 1628.96875 3083.738281 L 1741.328125 2791.519531 C 1741.328125 2791.519531 1747.671875 2773.988281 1740.539062 2765.621094 C 1733.398438 2757.25 1721.320312 2774.011719 1714.039062 2789.980469 C 1707.671875 2803.96875 1631.980469 3017.140625 1613.171875 3070.171875 C 1596.21875 3031.738281 1567.511719 2998.859375 1530.398438 2977.101562 L 1604.03125 2831.710938 C 1604.03125 2831.710938 1605.730469 2823.960938 1597.101562 2819.148438 C 1588.460938 2814.351562 1579.378906 2815.808594 1574.570312 2824.449219 C 1570.148438 2832.398438 1514 2946.53125 1505.140625 2964.550781 C 1495.609375 2960.640625 1485.671875 2957.390625 1475.339844 2954.898438 C 1395.359375 2935.609375 1315.019531 2966.71875 1267.710938 3027.800781 C 1315.789062 2982.871094 1384.808594 2962.191406 1453.558594 2978.78125 C 1562.261719 3005 1629.121094 3114.371094 1602.898438 3223.058594 C 1595.980469 3251.78125 1583.238281 3277.570312 1566.25 3299.5 C 1594.179688 3273.410156 1615.050781 3239.121094 1624.679688 3199.191406 C 1633.371094 3163.179688 1631.839844 3127.089844 1621.949219 3093.980469 C 1625.320312 3090.871094 1627.949219 3086.300781 1628.96875 3083.738281 Z M 980.316406 3278.46875 C 986.292969 3283.300781 992.234375 3288.171875 998.28125 3292.910156 L 1019.828125 3266.28125 C 1019.828125 3266.28125 1025.910156 3257.410156 1020.328125 3247.269531 C 1014.761719 3237.140625 999.296875 3248.289062 998.539062 3251.070312 C 998.324219 3251.878906 990.839844 3263.03125 980.316406 3278.46875 Z M 1124.320312 3136.019531 C 1124.320312 3136.019531 1456.128906 2702.519531 1469.21875 2692.480469 C 1482.308594 2682.441406 1486.03125 2698.03125 1478.058594 2709.941406 C 1470.089844 2721.859375 1136.179688 3142.921875 1132.878906 3141.660156 C 1129.578125 3140.398438 1126.808594 3142.351562 1124.320312 3136.019531 Z M 910.9375 2729.828125 L 1045.921875 2634.761719 C 1045.921875 2634.761719 1060.488281 2626.121094 1066.820312 2638 C 1073.148438 2649.871094 1041.621094 2667.558594 1041.621094 2667.558594 L 930.550781 2736.371094 C 930.550781 2736.371094 920.042969 2743.550781 912.441406 2742.371094 C 904.839844 2741.191406 909.285156 2731.03125 910.9375 2729.828125 Z M 1218.609375 2419.320312 L 857.171875 2602.558594 C 857.171875 2602.558594 848.46875 2606.179688 849.933594 2613.570312 C 851.390625 2620.960938 860.609375 2619.429688 860.609375 2619.429688 L 1221.839844 2433.109375 C 1221.839844 2433.109375 1231.839844 2428.78125 1230.898438 2422 C 1229.96875 2415.21875 1218.609375 2419.320312 1218.609375 2419.320312 Z M 599.003906 2502.609375 L 994.320312 2388.46875 C 994.320312 2388.46875 1001.578125 2386.21875 1006.871094 2394.101562 C 1012.160156 2401.980469 998.546875 2407.949219 992.992188 2410.359375 C 987.441406 2412.769531 600.476562 2516.5 600.476562 2516.5 C 600.476562 2516.5 591.929688 2516.828125 591.316406 2510.410156 C 590.707031 2504 599.003906 2502.609375 599.003906 2502.609375 Z M 967.511719 2337.210938 L 1158.511719 2291.179688 C 1158.511719 2291.179688 1165.769531 2288.921875 1171.058594 2296.808594 C 1176.351562 2304.679688 1162.730469 2310.648438 1157.179688 2313.070312 C 1151.628906 2315.480469 968.984375 2351.101562 968.984375 2351.101562 C 968.984375 2351.101562 960.4375 2351.429688 959.824219 2345.011719 C 959.214844 2338.589844 967.511719 2337.210938 967.511719 2337.210938 Z M 2798.871094 2367.421875 L 2621.578125 2282.769531 C 2621.578125 2282.769531 2614.949219 2279.058594 2608.140625 2285.679688 C 2601.328125 2292.289062 2613.410156 2300.949219 2618.339844 2304.460938 C 2623.269531 2307.96875 2794.550781 2380.710938 2794.550781 2380.710938 C 2794.550781 2380.710938 2802.839844 2382.800781 2804.769531 2376.648438 C 2806.710938 2370.5 2798.871094 2367.421875 2798.871094 2367.421875 Z M 3508.160156 2388.289062 L 2864.738281 2230.359375 C 2864.738281 2230.359375 2857.480469 2228.109375 2852.191406 2235.988281 C 2846.898438 2243.871094 2860.511719 2249.839844 2866.058594 2252.25 C 2871.621094 2254.660156 3506.691406 2402.179688 3506.691406 2402.179688 C 3506.691406 2402.179688 3515.230469 2402.511719 3515.839844 2396.089844 C 3516.460938 2389.671875 3508.160156 2388.289062 3508.160156 2388.289062 Z M 2764.089844 2194.230469 L 2462.351562 2129.578125 C 2462.351562 2129.578125 2447.769531 2128.660156 2445.78125 2143.289062 C 2443.789062 2157.910156 2509.140625 2162.851562 2509.140625 2162.851562 L 2762.871094 2213.660156 C 2762.871094 2213.660156 2773.539062 2217.179688 2774.679688 2207.441406 C 2775.828125 2197.699219 2764.089844 2194.230469 2764.089844 2194.230469 Z M 897.742188 3070.800781 L 1389.480469 2597 C 1389.480469 2597 1395.179688 2590.878906 1404.898438 2597.640625 C 1414.609375 2604.390625 1407.28125 2612.648438 1405.269531 2614.839844 C 1403.261719 2617.019531 920.019531 3079.710938 920.019531 3079.710938 C 920.019531 3079.710938 911.097656 3090.488281 899.09375 3092.46875 C 887.089844 3094.449219 897.742188 3070.800781 897.742188 3070.800781 Z M 2853.171875 1989.25 L 2281.941406 2050.609375 C 2281.941406 2050.609375 2266.859375 2055.671875 2263.648438 2044.011719 C 2260.449219 2032.339844 2276.019531 2030.328125 2286.800781 2029.328125 C 2297.570312 2028.320312 2848.609375 1982.148438 2848.609375 1982.148438 C 2848.609375 1982.148438 2861.078125 1984.191406 2853.171875 1989.25 Z M 2165.039062 1974.210938 L 2108.078125 2029.28125 C 2108.078125 2029.28125 2098.199219 2035.398438 2093.019531 2026.921875 C 2087.839844 2018.449219 2091.609375 2010.449219 2096.320312 2008.101562 C 2101.019531 2005.75 2152.320312 1965.269531 2152.320312 1965.269531 C 2152.320312 1965.269531 2166.441406 1963.390625 2165.039062 1974.210938 Z M 3159.5 1873.441406 L 2626.871094 1959.941406 C 2626.871094 1959.941406 2610.769531 1956.96875 2614.75 1947.800781 C 2618.738281 1938.628906 2630.339844 1938.761719 2630.339844 1938.761719 L 3149.460938 1860.828125 C 3149.460938 1860.828125 3165.058594 1868.871094 3159.5 1873.441406 Z M 2787.25 2289.351562 L 2488.390625 2209.53125 C 2488.390625 2209.53125 2476.988281 2205.460938 2481.261719 2194.460938 C 2485.519531 2183.460938 2505.730469 2186.5 2515.75 2188.808594 C 2525.761719 2191.121094 2795.570312 2266.941406 2806.96875 2273.941406 C 2818.378906 2280.960938 2813.730469 2291.171875 2809.03125 2293.550781 C 2804.328125 2295.921875 2787.25 2289.351562 2787.25 2289.351562 Z M 3160.371094 2706.679688 L 2740.539062 2475 C 2740.539062 2475 2712.628906 2465.289062 2721.660156 2438.148438 C 2730.699219 2411 2764.300781 2431.121094 2776.289062 2438.960938 C 2788.28125 2446.808594 3160.371094 2706.679688 3160.371094 2706.679688 Z M 2383.871094 1924.179688 L 2200.289062 1994.148438 C 2200.289062 1994.148438 2193.03125 1996.390625 2193.121094 2005.890625 C 2193.210938 2015.378906 2207.808594 2012.609375 2213.761719 2011.460938 C 2219.699219 2010.308594 2390.511719 1936.46875 2390.511719 1936.46875 C 2390.511719 1936.46875 2397.75 1931.921875 2394.628906 1926.28125 C 2391.5 1920.628906 2383.871094 1924.179688 2383.871094 1924.179688 Z M 1833.539062 2154.699219 L 1909.761719 2102.890625 C 1909.761719 2102.890625 1918.230469 2097.820312 1921.339844 2106.75 C 1924.449219 2115.691406 1840.390625 2163.449219 1837.78125 2164.058594 C 1835.160156 2164.671875 1827.929688 2158.761719 1833.539062 2154.699219 Z M 1514.398438 1975.539062 L 1710.871094 2013.921875 C 1710.871094 2013.921875 1717.589844 2016.519531 1716.480469 2025.878906 C 1715.378906 2035.238281 1703.511719 2033.820312 1703.511719 2033.820312 L 1505.550781 1988.710938 C 1505.550781 1988.710938 1497.539062 1985.378906 1499.800781 1978.570312 C 1502.050781 1971.761719 1514.398438 1975.539062 1514.398438 1975.539062 Z M 1546.78125 1904.519531 L 1687.808594 1960.050781 C 1687.808594 1960.050781 1693.121094 1962.550781 1698 1957.089844 C 1702.890625 1951.628906 1693.121094 1945.621094 1689.128906 1943.179688 C 1685.140625 1940.75 1549.390625 1894.070312 1549.390625 1894.070312 C 1549.390625 1894.070312 1542.890625 1892.898438 1541.738281 1897.738281 C 1540.589844 1902.578125 1546.78125 1904.519531 1546.78125 1904.519531 Z M 869.785156 2063.171875 L 1451.988281 2074.25 C 1451.988281 2074.25 1486.761719 2074.46875 1499.410156 2063.359375 C 1512.058594 2052.25 1476.488281 2045.390625 1444.21875 2043.53125 C 1411.949219 2041.671875 865.136719 2040.429688 865.136719 2040.429688 C 865.136719 2040.429688 840.109375 2042.800781 839.3125 2051.191406 C 838.511719 2059.589844 860.804688 2062.941406 869.785156 2063.171875 Z M 2473.011719 2080.679688 L 2470.460938 2080.570312 L 2276.378906 2072.570312 C 2276.378906 2072.570312 2264.21875 2082.699219 2274.351562 2084.730469 C 2284.488281 2086.75 2474.019531 2088.789062 2474.019531 2088.789062 C 2474.019531 2088.789062 2482.128906 2080.171875 2473.011719 2080.679688 Z M 3114.550781 2097.898438 L 2669.621094 2080.671875 C 2669.621094 2080.671875 2652.390625 2088.78125 2667.589844 2098.910156 C 2682.800781 2109.039062 3109.480469 2115.128906 3109.480469 2115.128906 C 3109.480469 2115.128906 3133.808594 2115.128906 3114.550781 2097.898438 Z M 669.460938 2232.691406 C 669.460938 2232.691406 777.402344 2213.941406 782.46875 2213.941406 C 787.535156 2213.941406 792.097656 2222.039062 789.054688 2228.128906 C 786.011719 2234.210938 671.488281 2241.800781 671.488281 2241.800781 C 671.488281 2241.800781 661.859375 2237.238281 669.460938 2232.691406 Z M 1420.601562 2164.578125 L 1766.609375 2094.710938 C 1766.609375 2094.710938 1782.421875 2093.050781 1766.609375 2109.679688 C 1750.800781 2126.320312 1429.738281 2171.238281 1429.738281 2171.238281 C 1429.738281 2171.238281 1413.941406 2173.730469 1420.601562 2164.578125 Z M 817.933594 2172.371094 C 817.933594 2172.371094 1049.011719 2148.050781 1065.230469 2148.050781 C 1081.449219 2148.050781 1072.320312 2169.328125 1054.078125 2172.371094 C 1035.839844 2175.410156 817.933594 2172.371094 817.933594 2172.371094 Z M 856.445312 2259.53125 L 1324.679688 2156.148438 C 1324.679688 2156.148438 1352.050781 2145.011719 1363.199219 2171.359375 C 1374.351562 2197.710938 1335.828125 2204.800781 1321.648438 2206.828125 C 1307.460938 2208.859375 856.445312 2259.53125 856.445312 2259.53125 Z M 1215.160156 2317.621094 L 1550.628906 2203.101562 C 1550.628906 2203.101562 1570.910156 2196.511719 1569.378906 2185.871094 C 1567.859375 2175.230469 1547.089844 2180.800781 1541.011719 2183.328125 C 1534.929688 2185.871094 1216.171875 2301.910156 1216.171875 2301.910156 C 1216.171875 2301.910156 1195.898438 2315.078125 1215.160156 2317.621094 Z M 1782.210938 2724.429688 L 1839.371094 2562.058594 C 1839.371094 2562.058594 1840.589844 2546.859375 1853.96875 2545.648438 C 1867.351562 2544.429688 1864.921875 2564.5 1863.089844 2568.140625 C 1861.269531 2571.789062 1795.589844 2735.371094 1795.589844 2735.371094 C 1795.589844 2735.371094 1791.328125 2742.058594 1784.339844 2739.628906 C 1777.351562 2737.199219 1782.210938 2724.429688 1782.210938 2724.429688 Z M 1058.859375 2428.578125 L 1207.851562 2357.441406 C 1207.851562 2357.441406 1223.660156 2351.359375 1227.910156 2364.128906 C 1232.171875 2376.898438 1198.121094 2389.058594 1198.121094 2389.058594 L 1077.101562 2438.308594 C 1077.101562 2438.308594 1065.539062 2443.640625 1058.25 2441.199219 C 1050.949219 2438.769531 1057.03125 2429.5 1058.859375 2428.578125 Z M 1423.570312 2332.5 L 1644.921875 2223.648438 C 1644.921875 2223.648438 1653.738281 2220 1652.519531 2208.140625 C 1651.308594 2196.289062 1633.371094 2201.449219 1626.070312 2203.578125 C 1618.769531 2205.710938 1413.839844 2317.910156 1413.839844 2317.910156 C 1413.839844 2317.910156 1405.320312 2324.449219 1409.878906 2331.140625 C 1414.441406 2337.828125 1423.570312 2332.5 1423.570312 2332.5 Z M 3223.398438 2928.449219 L 3058.609375 2811.089844 C 3058.609375 2811.089844 3049.480469 2801.351562 3056.78125 2791.628906 C 3064.078125 2781.898438 3073.199219 2788.589844 3073.199219 2788.589844 L 3235.871094 2921.148438 C 3235.871094 2921.148438 3239.980469 2929.960938 3233.589844 2932.089844 C 3227.199219 2934.21875 3223.398438 2928.449219 3223.398438 2928.449219 Z M 2974.789062 2926.03125 L 2814.859375 2783.121094 C 2814.859375 2783.121094 2809.078125 2777.039062 2815.160156 2771.570312 C 2821.238281 2766.089844 2832.789062 2774.300781 2838.261719 2778.859375 C 2843.738281 2783.429688 2986.949219 2914.769531 2991.808594 2922.671875 C 2996.679688 2930.578125 2990.601562 2935.441406 2986.960938 2935.441406 C 2983.300781 2935.441406 2974.789062 2926.03125 2974.789062 2926.03125 Z M 2245.03125 2325.121094 C 2240.46875 2321.328125 2164.460938 2221.371094 2164.460938 2221.371094 C 2164.460938 2221.371094 2161.039062 2216.429688 2165.601562 2211.871094 C 2170.160156 2207.300781 2180.421875 2209.210938 2184.980469 2214.898438 C 2189.539062 2220.609375 2254.53125 2323.988281 2254.53125 2323.988281 C 2254.53125 2323.988281 2256.25 2329.308594 2252.449219 2330.828125 C 2248.648438 2332.351562 2245.03125 2325.121094 2245.03125 2325.121094 Z M 2125.300781 2271.921875 L 2087.679688 2174.621094 C 2087.679688 2174.621094 2084.261719 2163.980469 2094.898438 2162.839844 C 2105.539062 2161.699219 2136.710938 2266.601562 2136.710938 2269.640625 C 2136.710938 2272.679688 2128.339844 2279.140625 2125.300781 2271.921875 Z M 1033.75 2618.539062 L 1300.558594 2463.46875 C 1300.558594 2463.46875 1311.960938 2454.351562 1303.589844 2442.191406 C 1295.238281 2430.03125 1243.550781 2470.308594 1243.550781 2470.308594 L 1021.589844 2603.339844 C 1021.589844 2603.339844 1011.328125 2607.898438 1017.03125 2615.878906 C 1022.730469 2623.859375 1033.75 2618.539062 1033.75 2618.539062 Z M 1536.851562 3572.601562 C 1543.730469 3574.671875 1550.589844 3576.761719 1557.5 3578.738281 L 1574.941406 3528.410156 C 1574.941406 3528.410156 1580.640625 3512.828125 1568.480469 3511.679688 C 1556.320312 3510.539062 1553.28125 3519.289062 1551 3523.851562 C 1550.160156 3525.519531 1544.140625 3546.609375 1536.851562 3572.601562 Z M 927.691406 2907.960938 L 1135.210938 2746.050781 C 1135.210938 2746.050781 1147.371094 2736.160156 1145.851562 2727.039062 C 1144.328125 2717.921875 1128.371094 2724.761719 1116.210938 2733.128906 C 1104.039062 2741.488281 914.011719 2898.070312 914.011719 2898.070312 C 914.011719 2898.070312 906.601562 2906.441406 910.777344 2910.800781 C 914.960938 2915.171875 924.464844 2910.421875 927.691406 2907.960938 Z M 1235.738281 3448.058594 C 1241.75 3451.28125 1247.78125 3454.460938 1253.828125 3457.601562 L 1332.699219 3328.628906 C 1332.699219 3328.628906 1347.140625 3311.898438 1339.539062 3301.261719 C 1331.941406 3290.621094 1320.539062 3304.300781 1320.539062 3304.300781 Z M 1325.269531 3492.589844 C 1334.820312 3496.988281 1344.429688 3501.269531 1354.078125 3505.480469 C 1384.140625 3443.480469 1404.890625 3400.628906 1405.589844 3399.011719 C 1408.261719 3392.929688 1418.140625 3370.5 1399.128906 3368.601562 C 1380.128906 3366.699219 1375.949219 3384.941406 1375.949219 3384.941406 Z M 1554.75 3446.328125 L 1586.300781 3347.890625 C 1586.300781 3347.890625 1587.820312 3338.011719 1599.980469 3339.53125 C 1612.140625 3341.050781 1610.238281 3354.351562 1609.480469 3359.671875 C 1608.71875 3364.988281 1569.191406 3452.789062 1569.191406 3452.789062 C 1569.191406 3452.789062 1565.390625 3456.96875 1558.929688 3455.449219 C 1552.46875 3453.929688 1554.75 3446.328125 1554.75 3446.328125 Z M 1412.789062 3508.648438 L 1469.800781 3369.171875 C 1469.800781 3369.171875 1476.261719 3356.238281 1489.941406 3361.191406 C 1503.621094 3366.128906 1494.121094 3383.988281 1492.980469 3387.03125 C 1491.839844 3390.070312 1430.648438 3516.25 1430.648438 3516.25 C 1430.648438 3516.25 1427.800781 3522.71875 1416.96875 3523.101562 C 1406.140625 3523.46875 1412.789062 3508.648438 1412.789062 3508.648438 Z M 1556.011719 2552.808594 L 1602 2508.339844 C 1602 2508.339844 1609.988281 2503.398438 1614.171875 2510.238281 C 1618.351562 2517.078125 1615.300781 2523.539062 1611.5 2525.441406 C 1607.710938 2527.339844 1566.28125 2560.03125 1566.28125 2560.03125 C 1566.28125 2560.03125 1554.878906 2561.550781 1556.011719 2552.808594 Z M 1718.839844 2633.761719 L 1874.671875 2318.308594 C 1874.671875 2318.308594 1878.851562 2308.429688 1886.828125 2309.570312 C 1894.808594 2310.710938 1897.851562 2320.589844 1896.710938 2327.050781 C 1895.570312 2333.511719 1732.148438 2642.5 1732.148438 2642.5 C 1732.148438 2642.5 1729.871094 2648.210938 1720.75 2646.5 C 1711.628906 2644.789062 1718.839844 2633.761719 1718.839844 2633.761719 Z M 1141.511719 2666.460938 L 1691.460938 2261.691406 C 1691.460938 2261.691406 1697.921875 2256.359375 1706.671875 2264.351562 C 1715.410156 2272.328125 1707.050781 2279.550781 1704.761719 2281.449219 C 1702.488281 2283.351562 1162.421875 2678.230469 1162.421875 2678.230469 C 1162.421875 2678.230469 1152.148438 2687.738281 1139.988281 2688.109375 C 1127.828125 2688.488281 1141.511719 2666.460938 1141.511719 2666.460938 Z M 3195 3119.308594 L 3086.679688 3019.359375 C 3086.679688 3019.359375 3081.738281 3012.140625 3088.960938 3005.289062 C 3096.179688 2998.449219 3109.109375 3007.570312 3109.109375 3007.570312 L 3202.980469 3103.351562 C 3202.980469 3103.351562 3214.011719 3113.238281 3206.96875 3120.648438 C 3199.941406 3128.058594 3195 3119.308594 3195 3119.308594 Z M 1694.960938 3611.628906 C 1701.730469 3612.941406 1708.488281 3614.28125 1715.289062 3615.519531 L 1807.558594 3174.820312 C 1788.558594 3170.261719 1790.078125 3185.460938 1790.078125 3185.460938 Z M 3030.121094 3093.738281 L 2779.269531 2846.699219 C 2779.269531 2846.699219 2772.050781 2836.058594 2780.03125 2826.179688 C 2788.011719 2816.289062 2800.171875 2827.691406 2800.171875 2827.691406 L 3049.488281 3087.660156 C 3049.488281 3087.660156 3054.429688 3097.921875 3047.601562 3100.578125 C 3040.75 3103.238281 3032.769531 3097.921875 3030.121094 3093.738281 Z M 1432.050781 2544.691406 L 1836.441406 2187.421875 C 1836.441406 2187.421875 1851.640625 2181.339844 1853.160156 2191.21875 C 1854.679688 2201.109375 1844.800781 2207.191406 1844.800781 2207.191406 L 1447.261719 2550 C 1447.261719 2550 1429.769531 2551.519531 1432.050781 2544.691406 Z M 1897.03125 2410.730469 L 1981.410156 2145.441406 C 1981.410156 2145.441406 1986.351562 2133.28125 1996.988281 2138.21875 C 2007.628906 2143.160156 2002.308594 2156.839844 2002.308594 2156.839844 L 1910.71875 2416.039062 C 1910.71875 2416.039062 1909.390625 2424.210938 1901.03125 2423.839844 C 1892.671875 2423.460938 1897.03125 2410.730469 1897.03125 2410.730469 Z M 1720.769531 2412.621094 C 1720.769531 2412.621094 1856.839844 2231.710938 1861.148438 2227.910156 C 1865.449219 2224.109375 1880.398438 2220.050781 1883.449219 2231.710938 C 1886.480469 2243.359375 1727.371094 2441.761719 1727.371094 2441.761719 C 1727.371094 2441.761719 1718.75 2457.71875 1703.039062 2455.691406 C 1687.328125 2453.671875 1720.769531 2412.621094 1720.769531 2412.621094 Z M 2924.21875 3075.71875 L 2767.128906 2901.390625 C 2765.101562 2899.808594 2760.710938 2870.191406 2789.421875 2891.261719 C 2797.03125 2896.828125 2935.878906 3068.109375 2935.878906 3068.109375 C 2935.878906 3068.109375 2938.230469 3075.019531 2933.03125 3077.609375 C 2927.839844 3080.210938 2924.21875 3075.71875 2924.21875 3075.71875 Z M 2428.730469 2400.480469 L 2356.269531 2336.621094 C 2356.269531 2336.621094 2348.671875 2330.03125 2353.730469 2319.648438 C 2358.800781 2309.261719 2371.96875 2315.078125 2377.039062 2320.398438 C 2382.109375 2325.71875 2443.941406 2390.339844 2443.941406 2390.339844 C 2443.941406 2390.339844 2446.96875 2397.300781 2442.160156 2401.359375 C 2437.351562 2405.410156 2430.890625 2402.5 2428.730469 2400.480469 Z M 2218.421875 2143.050781 L 2562 2357.921875 C 2562 2357.921875 2569.601562 2363.488281 2575.171875 2358.429688 C 2580.75 2353.359375 2574.671875 2346.261719 2574.671875 2346.261719 L 2228.558594 2133.171875 C 2228.558594 2133.171875 2219.691406 2126.828125 2214.359375 2131.140625 C 2209.039062 2135.449219 2218.421875 2143.050781 2218.421875 2143.050781 Z M 2275.929688 2242.628906 L 2123.910156 2112.398438 C 2123.910156 2112.398438 2119.339844 2106.820312 2124.921875 2099.21875 C 2130.488281 2091.621094 2140.128906 2098.710938 2140.128906 2098.710938 L 2290.121094 2235.539062 C 2290.121094 2235.539062 2295.449219 2242.378906 2290.128906 2247.199219 C 2284.808594 2252.011719 2275.929688 2242.628906 2275.929688 2242.628906 Z M 2795.070312 3076.25 L 2696.261719 2954.121094 C 2696.261719 2954.121094 2690.179688 2945.25 2695.75 2935.121094 C 2701.328125 2924.980469 2716.78125 2936.128906 2717.539062 2938.921875 C 2718.300781 2941.699219 2806.21875 3068.640625 2806.21875 3068.640625 C 2806.21875 3068.640625 2809.011719 3075.988281 2803.691406 3079.539062 C 2798.371094 3083.078125 2795.070312 3076.25 2795.070312 3076.25 Z M 2242.429688 2579.300781 L 2182.628906 2424.230469 C 2182.628906 2424.230469 2180.351562 2416.621094 2185.929688 2413.578125 C 2191.5 2410.550781 2196.820312 2413.589844 2199.101562 2417.890625 C 2201.378906 2422.199219 2251.050781 2575.738281 2251.050781 2575.738281 C 2251.050781 2575.738281 2252.191406 2582.078125 2247.75 2583.601562 C 2243.320312 2585.121094 2242.429688 2579.300781 2242.429688 2579.300781 Z M 2582.441406 3086.808594 L 2531.261719 2990.53125 C 2531.261719 2990.53125 2529.488281 2983.941406 2535.820312 2980.140625 C 2542.160156 2976.339844 2545.960938 2979.890625 2549.761719 2983.941406 C 2553.558594 2988 2594.351562 3082.25 2594.351562 3082.25 C 2594.351562 3082.25 2595.371094 3089.71875 2589.289062 3090.609375 C 2583.210938 3091.5 2582.441406 3086.808594 2582.441406 3086.808594 Z M 2888.890625 3386.320312 C 2893.25 3383.550781 2897.570312 3380.71875 2901.898438 3377.910156 L 2631.109375 2959.339844 C 2631.109375 2959.339844 2620.96875 2941.089844 2613.878906 2949.710938 C 2606.78125 2958.328125 2612.871094 2966.941406 2612.871094 2966.941406 Z M 1879.640625 2810.820312 L 1959.699219 2356.769531 C 1959.699219 2356.769531 1962.238281 2341.070312 1976.929688 2343.601562 C 1991.628906 2346.128906 1988.078125 2361.339844 1986.058594 2370.460938 C 1984.03125 2379.578125 1901.941406 2812.839844 1901.941406 2812.839844 C 1901.941406 2812.839844 1898.640625 2831.589844 1887.75 2831.839844 C 1876.851562 2832.101562 1879.640625 2810.820312 1879.640625 2810.820312 Z M 2758.761719 3461.058594 C 2768.988281 3455.789062 2779.148438 3450.441406 2789.261719 3444.96875 L 2711.46875 3286.421875 C 2711.46875 3286.421875 2699.808594 3266.648438 2683.601562 3272.230469 C 2667.378906 3277.800781 2674.980469 3297.058594 2674.980469 3297.058594 Z M 2026.328125 2762.699219 L 2024.308594 2150.039062 C 2024.308594 2150.039062 2024.050781 2141.671875 2030.640625 2141.421875 C 2037.230469 2141.171875 2040.78125 2145.980469 2041.03125 2150.789062 C 2041.28125 2155.609375 2035.199219 2763.199219 2035.199219 2763.199219 C 2035.199219 2763.199219 2028.359375 2770.289062 2026.328125 2762.699219 Z M 2613.121094 3527.210938 C 2618.71875 3524.980469 2624.269531 3522.648438 2629.851562 3520.371094 C 2560.121094 3336.070312 2433.519531 3001.960938 2429.121094 2993.898438 C 2423.03125 2982.75 2420 2975.660156 2410.871094 2979.199219 C 2401.75 2982.75 2408.339844 2997.441406 2408.339844 2997.441406 Z M 2541.910156 3553.46875 C 2549.761719 3550.769531 2557.578125 3548.011719 2565.371094 3545.210938 C 2502.511719 3352.210938 2428.691406 3131.519531 2420.128906 3132.671875 C 2404.921875 3134.691406 2406.949219 3148.878906 2406.949219 3148.878906 Z M 2127.730469 2754.140625 L 2065.910156 2270.699219 C 2065.910156 2270.699219 2060.839844 2258.019531 2072.488281 2254.980469 C 2084.148438 2251.949219 2086.179688 2265.121094 2087.191406 2274.238281 C 2088.199219 2283.359375 2134.828125 2750.078125 2134.828125 2750.078125 C 2134.828125 2750.078125 2132.800781 2760.71875 2127.730469 2754.140625 Z M 2437.238281 3470.390625 C 2437.238281 3470.390625 2357.53125 3202.5 2287.160156 2959.679688 C 2209.480469 2981.898438 2160.328125 2982.960938 2160.328125 2957.621094 C 2160.328125 2935.761719 2196.878906 2898.171875 2256.761719 2854.25 C 2213.78125 2704.328125 2180.460938 2583.789062 2181.839844 2574.960938 C 2185.640625 2550.640625 2209.199219 2565.839844 2212.238281 2578 C 2213.300781 2582.230469 2242.71875 2693.730469 2280.621094 2837.269531 C 2306.128906 2819.621094 2334.921875 2801.191406 2366.210938 2782.539062 C 2354.050781 2722.488281 2373.261719 2662.871094 2413.039062 2621.351562 C 2411.308594 2620.03125 2410.078125 2618.25 2409.488281 2616.949219 L 2281.789062 2421.351562 C 2281.789062 2421.351562 2279.261719 2413.238281 2287.871094 2408.171875 C 2296.480469 2403.101562 2301.550781 2411.71875 2305.609375 2417.289062 C 2309.53125 2422.691406 2415.558594 2600.941406 2422.328125 2612.320312 C 2444.019531 2592.699219 2470.78125 2578.058594 2501.210938 2570.710938 C 2537.230469 2562.03125 2573.328125 2564.78125 2605.699219 2576.621094 L 2455.398438 2441.640625 C 2455.398438 2441.640625 2449.898438 2434.558594 2449.808594 2429.179688 C 2449.730469 2423.808594 2459.511719 2419.648438 2466.058594 2424.050781 C 2472.339844 2428.261719 2620.328125 2576.550781 2633.019531 2589.269531 C 2653.730469 2601.03125 2672.109375 2616.828125 2686.878906 2635.898438 C 2643.890625 2595.71875 2582.171875 2577.238281 2520.691406 2592.070312 C 2423.488281 2615.511719 2363.699219 2713.308594 2387.140625 2810.511719 C 2392.480469 2832.621094 2401.660156 2852.789062 2413.808594 2870.5 C 2446.570312 2858.980469 2484.621094 2843.039062 2525.199219 2823.398438 C 2648.121094 2763.890625 2747.769531 2684.75 2747.769531 2664.789062 C 2747.769531 2644.828125 2739.839844 2650.628906 2710.25 2656.320312 C 2707.898438 2646.328125 2694.96875 2634.410156 2691.289062 2625.429688 C 2812 2580.761719 2894.929688 2569.101562 2894.929688 2602.03125 C 2894.929688 2648.390625 2730.480469 2765.578125 2527.628906 2863.78125 C 2446.628906 2902.988281 2371.761719 2933.230469 2311.039062 2952.46875 C 2377.28125 3203.328125 2452.449219 3487.871094 2452.449219 3487.871094 C 2452.449219 3487.871094 2442.570312 3496.230469 2437.238281 3470.390625 Z M 1873.171875 3636.210938 C 1875.671875 3636.421875 1878.148438 3636.691406 1880.648438 3636.878906 C 1907.371094 3396.378906 1943.371094 3072.03125 1943.53125 3068.839844 C 1943.78125 3063.769531 1943.019531 3050.351562 1932.121094 3049.578125 C 1921.230469 3048.820312 1922.25 3064.789062 1922.25 3064.789062 C 1918.46875 3088.71875 1892.378906 3402.238281 1873.171875 3636.210938 Z M 2353.269531 3605.710938 C 2357.808594 3604.738281 2362.339844 3603.75 2366.871094 3602.738281 C 2337.261719 3448.589844 2278.578125 3143.078125 2276.679688 3134 C 2274.148438 3121.839844 2259.960938 3117.28125 2258.441406 3125.898438 C 2257.300781 3132.359375 2321.308594 3448.578125 2353.269531 3605.710938 Z M 2124.398438 3359.011719 C 2124.398438 3359.011719 2081.839844 2814.761719 2084.878906 2798.539062 C 2087.921875 2782.328125 2101.089844 2791.449219 2103.121094 2805.640625 C 2105.140625 2819.820312 2137.828125 3356.230469 2134.539062 3357.488281 C 2131.238281 3358.761719 2130.480469 3362.050781 2124.398438 3359.011719 Z M 2211.878906 3629.480469 C 2220.96875 3628.359375 2230.011719 3627.109375 2239.050781 3625.839844 C 2229.488281 3410.96875 2210.53125 3060.488281 2210.53125 3037.738281 C 2210.53125 3005.308594 2204.449219 2980.980469 2190.261719 3000.238281 C 2180.410156 3013.601562 2199.359375 3396.398438 2211.878906 3629.480469 Z M 2844.238281 1772.441406 L 2508.769531 1886.960938 C 2508.769531 1886.960938 2488.5 1893.550781 2490.019531 1904.191406 C 2491.539062 1914.839844 2512.320312 1909.261719 2518.398438 1906.730469 C 2524.480469 1904.191406 2843.230469 1788.148438 2843.230469 1788.148438 C 2843.230469 1788.148438 2863.5 1774.980469 2844.238281 1772.441406 Z M 3000.539062 1661.480469 L 2851.558594 1732.628906 C 2851.558594 1732.628906 2835.75 1738.710938 2831.488281 1725.941406 C 2827.238281 1713.171875 2861.289062 1701 2861.289062 1701 L 2982.300781 1651.75 C 2982.300781 1651.75 2993.859375 1646.429688 3001.160156 1648.859375 C 3008.460938 1651.289062 3002.378906 1660.570312 3000.539062 1661.480469 Z M 2635.839844 1757.558594 L 2414.488281 1866.410156 C 2414.488281 1866.410156 2405.671875 1870.058594 2406.878906 1881.921875 C 2408.101562 1893.78125 2426.039062 1888.609375 2433.328125 1886.480469 C 2440.628906 1884.351562 2645.558594 1772.160156 2645.558594 1772.160156 C 2645.558594 1772.160156 2654.078125 1765.621094 2649.519531 1758.929688 C 2644.960938 1752.238281 2635.839844 1757.558594 2635.839844 1757.558594 Z M 836.003906 1161.609375 L 1000.800781 1278.980469 C 1000.800781 1278.980469 1009.921875 1288.710938 1002.621094 1298.441406 C 995.328125 1308.160156 986.207031 1301.480469 986.207031 1301.480469 L 823.535156 1168.921875 C 823.535156 1168.921875 819.429688 1160.101562 825.816406 1157.96875 C 832.203125 1155.839844 836.003906 1161.609375 836.003906 1161.609375 Z M 1015.699219 1148.828125 L 1175.628906 1291.738281 C 1175.628906 1291.738281 1181.410156 1297.820312 1175.328125 1303.300781 C 1169.25 1308.769531 1157.691406 1300.558594 1152.21875 1296 C 1146.738281 1291.441406 1003.539062 1160.101562 998.671875 1152.191406 C 993.808594 1144.28125 999.882812 1139.421875 1003.53125 1139.421875 C 1007.179688 1139.421875 1015.699219 1148.828125 1015.699219 1148.828125 Z M 1241.789062 1424.601562 L 1534.441406 1661.761719 C 1534.441406 1661.761719 1544.320312 1672.78125 1545.460938 1681.140625 C 1546.601562 1689.511719 1532.160156 1695.96875 1521.128906 1689.128906 C 1510.109375 1682.28125 1228.871094 1430.679688 1228.871094 1430.679688 C 1228.871094 1430.679688 1222.210938 1420.621094 1228.101562 1417.378906 C 1233.988281 1414.148438 1241.789062 1424.601562 1241.789062 1424.601562 Z M 1814.378906 1764.941406 C 1818.941406 1768.738281 1894.949219 1868.699219 1894.949219 1868.699219 C 1894.949219 1868.699219 1898.371094 1873.628906 1893.808594 1878.199219 C 1889.25 1882.761719 1878.980469 1880.859375 1874.421875 1875.148438 C 1869.859375 1869.449219 1804.871094 1766.078125 1804.871094 1766.078125 C 1804.871094 1766.078125 1803.148438 1760.75 1806.949219 1759.230469 C 1810.75 1757.710938 1814.378906 1764.941406 1814.378906 1764.941406 Z M 1934.101562 1818.148438 L 1971.730469 1915.441406 C 1971.730469 1915.441406 1975.148438 1926.078125 1964.511719 1927.21875 C 1953.871094 1928.371094 1922.699219 1823.46875 1922.699219 1820.429688 C 1922.699219 1817.378906 1931.058594 1810.921875 1934.101562 1818.148438 Z M 3025.660156 1471.519531 L 2758.851562 1626.589844 C 2758.851562 1626.589844 2747.449219 1635.710938 2755.808594 1647.871094 C 2764.171875 1660.03125 2815.859375 1619.75 2815.859375 1619.75 L 3037.820312 1486.730469 C 3037.820312 1486.730469 3048.078125 1482.160156 3042.378906 1474.179688 C 3036.679688 1466.199219 3025.660156 1471.519531 3025.660156 1471.519531 Z M 2540.96875 451.128906 C 2535.550781 449.269531 2530.101562 447.480469 2524.648438 445.679688 L 2484.460938 561.660156 C 2484.460938 561.660156 2478.761719 577.238281 2490.929688 578.378906 C 2503.089844 579.519531 2506.128906 570.78125 2508.410156 566.210938 C 2509.941406 563.148438 2528.761719 495.378906 2540.96875 451.128906 Z M 3199.820312 1145.621094 L 2992.300781 1307.53125 C 2992.300781 1307.53125 2980.140625 1317.410156 2981.660156 1326.53125 C 2983.179688 1335.648438 2999.148438 1328.808594 3011.308594 1320.449219 C 3023.46875 1312.089844 3213.5 1155.511719 3213.5 1155.511719 C 3213.5 1155.511719 3220.910156 1147.140625 3216.730469 1142.769531 C 3212.550781 1138.398438 3203.050781 1143.148438 3199.820312 1145.621094 Z M 2784.570312 557.488281 C 2775.460938 552.601562 2766.320312 547.730469 2757.101562 543 C 2716.53125 626.671875 2686.289062 689.089844 2685.429688 691.050781 C 2682.769531 697.140625 2672.890625 719.558594 2691.890625 721.460938 C 2710.898438 723.359375 2715.078125 705.121094 2715.078125 705.121094 Z M 2446.28125 565.898438 L 2414.730469 664.339844 C 2414.730469 664.339844 2413.210938 674.21875 2401.050781 672.699219 C 2388.890625 671.179688 2390.789062 657.878906 2391.550781 652.558594 C 2392.308594 647.230469 2431.839844 559.441406 2431.839844 559.441406 C 2431.839844 559.441406 2435.640625 555.261719 2442.101562 556.78125 C 2448.558594 558.300781 2446.28125 565.898438 2446.28125 565.898438 Z M 2656.351562 532.761719 L 2599.339844 672.25 C 2599.339844 672.25 2592.878906 685.171875 2579.199219 680.230469 C 2565.511719 675.289062 2575.019531 657.421875 2576.148438 654.378906 C 2577.289062 651.339844 2638.480469 525.160156 2638.480469 525.160156 C 2638.480469 525.160156 2641.328125 518.699219 2652.171875 518.320312 C 2663 517.941406 2656.351562 532.761719 2656.351562 532.761719 Z M 2606.71875 475.230469 C 2596.109375 471.070312 2585.441406 467 2574.710938 463.058594 C 2570.171875 474.820312 2566.210938 492.550781 2577.859375 497.789062 C 2593.058594 504.628906 2600.660156 492.46875 2600.660156 492.46875 Z M 2917.890625 1423.609375 L 2367.941406 1828.378906 C 2367.941406 1828.378906 2361.480469 1833.699219 2352.738281 1825.71875 C 2344 1817.730469 2352.359375 1810.511719 2354.640625 1808.609375 C 2356.921875 1806.710938 2896.980469 1411.828125 2896.980469 1411.828125 C 2896.980469 1411.828125 2907.25 1402.328125 2919.410156 1401.949219 C 2931.578125 1401.570312 2917.890625 1423.609375 2917.890625 1423.609375 Z M 1391.921875 1427.980469 L 1451.210938 1488.019531 C 1451.210938 1488.019531 1454.25 1491.828125 1451.210938 1500.191406 C 1448.171875 1508.550781 1436.769531 1502.46875 1431.070312 1498.289062 C 1425.371094 1494.109375 1378.238281 1438.238281 1378.238281 1438.238281 C 1378.238281 1438.238281 1375.390625 1428.539062 1380.898438 1425.121094 C 1386.410156 1421.699219 1391.921875 1427.980469 1391.921875 1427.980469 Z M 864.40625 970.75 L 972.726562 1070.710938 C 972.726562 1070.710938 977.667969 1077.929688 970.445312 1084.769531 C 963.222656 1091.609375 950.300781 1082.488281 950.300781 1082.488281 L 856.425781 986.710938 C 856.425781 986.710938 845.402344 976.828125 852.429688 969.410156 C 859.460938 962 864.40625 970.75 864.40625 970.75 Z M 2661.820312 1510.921875 L 2257.429688 1868.179688 C 2257.429688 1868.179688 2242.230469 1874.261719 2240.710938 1864.378906 C 2239.179688 1854.5 2249.070312 1848.421875 2249.070312 1848.421875 L 2636.75 1514.101562 C 2616.480469 1517.109375 2595.738281 1518.660156 2574.640625 1518.660156 C 2549.671875 1518.660156 2525.21875 1516.480469 2501.460938 1512.308594 L 2449.25 1592.25 C 2449.25 1592.25 2437.171875 1604.148438 2427.070312 1593.78125 C 2416.960938 1583.398438 2419.730469 1570.800781 2425.671875 1565.941406 C 2429.589844 1562.71875 2457.101562 1529.199219 2475.28125 1506.851562 C 2427.570312 1495.300781 2383.039062 1475.609375 2343.230469 1449.339844 C 2342.898438 1452.730469 2340.570312 1456.300781 2340.570312 1456.300781 L 2184.738281 1771.75 C 2184.738281 1771.75 2180.558594 1781.628906 2172.578125 1780.5 C 2164.601562 1779.359375 2161.558594 1769.46875 2162.699219 1763.011719 C 2163.839844 1756.550781 2327.261719 1447.550781 2327.261719 1447.550781 C 2327.261719 1447.550781 2328.78125 1443.75 2334.308594 1443.289062 C 2310.839844 1426.929688 2289.121094 1408.230469 2269.480469 1387.539062 L 2220.03125 1528 C 2220.03125 1528 2218.820312 1543.199219 2205.441406 1544.421875 C 2192.058594 1545.628906 2194.488281 1525.570312 2196.308594 1521.921875 C 2197.761719 1519.03125 2239.179688 1415.988281 2256.410156 1373.121094 C 2192.589844 1299.371094 2153.96875 1203.199219 2153.96875 1098 C 2153.96875 998.769531 2188.339844 907.570312 2245.808594 835.640625 L 2337.878906 395.929688 C 2344.898438 397.359375 2351.871094 398.929688 2358.859375 400.441406 L 2267.261719 810.851562 C 2305.179688 770.269531 2351.039062 737.191406 2402.371094 714.121094 C 2288.191406 789.351562 2212.808594 918.679688 2212.808594 1065.640625 C 2212.808594 1297.96875 2401.140625 1486.300781 2633.46875 1486.300781 C 2694.851562 1486.300781 2753.148438 1473.148438 2805.730469 1449.519531 C 2762.679688 1477.878906 2714.128906 1498.550781 2662.011719 1509.570312 C 2662.039062 1509.980469 2661.980469 1510.421875 2661.820312 1510.921875 Z M 895 910.679688 L 1145.839844 1157.71875 C 1145.839844 1157.71875 1153.058594 1168.371094 1145.078125 1178.25 C 1137.101562 1188.128906 1124.941406 1176.730469 1124.941406 1176.730469 L 875.621094 916.761719 C 875.621094 916.761719 870.679688 906.5 877.519531 903.839844 C 884.363281 901.179688 892.34375 906.5 895 910.679688 Z M 2162.371094 1679.339844 L 2078 1944.628906 C 2078 1944.628906 2073.050781 1956.789062 2062.410156 1951.851562 C 2051.769531 1946.910156 2057.089844 1933.21875 2057.089844 1933.21875 L 2148.691406 1674.019531 C 2148.691406 1674.019531 2150.019531 1665.851562 2158.378906 1666.230469 C 2166.738281 1666.609375 2162.371094 1679.339844 2162.371094 1679.339844 Z M 935.398438 763.941406 C 929.269531 769.269531 923.234375 774.691406 917.1875 780.101562 L 978.484375 853.230469 C 978.484375 853.230469 988.113281 862.339844 997.742188 855.25 C 1007.371094 848.160156 1002.300781 837.511719 1002.300781 837.511719 Z M 2338.628906 1677.441406 C 2338.628906 1677.441406 2202.570312 1858.359375 2198.261719 1862.160156 C 2193.949219 1865.949219 2179 1870.011719 2175.960938 1858.359375 C 2172.921875 1846.699219 2332.039062 1648.308594 2332.039062 1648.308594 C 2332.039062 1648.308594 2340.648438 1632.339844 2356.359375 1634.371094 C 2372.070312 1636.398438 2338.628906 1677.441406 2338.628906 1677.441406 Z M 1060.691406 935.289062 L 1217.78125 1109.621094 C 1219.820312 1111.199219 1224.210938 1140.820312 1195.488281 1119.761719 C 1187.890625 1114.179688 1049.03125 942.898438 1049.03125 942.898438 C 1049.03125 942.898438 1046.679688 935.988281 1051.878906 933.390625 C 1057.070312 930.800781 1060.691406 935.289062 1060.691406 935.289062 Z M 1630.671875 1689.589844 L 1703.140625 1753.441406 C 1703.140625 1753.441406 1710.738281 1760.03125 1705.679688 1770.421875 C 1700.609375 1780.808594 1687.429688 1774.980469 1682.359375 1769.660156 C 1677.300781 1764.339844 1615.46875 1699.730469 1615.46875 1699.730469 C 1615.46875 1699.730469 1612.429688 1692.761719 1617.238281 1688.699219 C 1622.058594 1684.648438 1628.519531 1687.558594 1630.671875 1689.589844 Z M 1840.988281 1947.011719 L 1497.410156 1732.148438 C 1497.410156 1732.148438 1489.808594 1726.570312 1484.230469 1731.640625 C 1478.660156 1736.699219 1484.738281 1743.800781 1484.738281 1743.800781 L 1830.851562 1956.898438 C 1830.851562 1956.898438 1839.71875 1963.230469 1845.039062 1958.921875 C 1850.359375 1954.621094 1840.988281 1947.011719 1840.988281 1947.011719 Z M 1783.46875 1847.429688 L 1935.5 1977.671875 C 1935.5 1977.671875 1940.058594 1983.238281 1934.488281 1990.839844 C 1928.910156 1998.441406 1919.28125 1991.351562 1919.28125 1991.351562 L 1769.289062 1854.519531 C 1769.289062 1854.519531 1763.960938 1847.679688 1769.28125 1842.871094 C 1774.601562 1838.050781 1783.46875 1847.429688 1783.46875 1847.429688 Z M 1183.761719 880.03125 L 1282.578125 1002.160156 C 1282.578125 1002.160156 1288.648438 1011.03125 1283.078125 1021.171875 C 1277.5 1031.300781 1262.050781 1020.148438 1261.289062 1017.359375 C 1260.53125 1014.578125 1172.609375 887.640625 1172.609375 887.640625 C 1172.609375 887.640625 1169.820312 880.289062 1175.140625 876.738281 C 1180.460938 873.199219 1183.761719 880.03125 1183.761719 880.03125 Z M 1257.511719 1211.558594 L 1719.160156 1713.75 C 1719.160156 1713.75 1729.289062 1721.859375 1724.21875 1732.5 C 1719.160156 1743.148438 1705.46875 1735.539062 1702.441406 1733.519531 C 1699.398438 1731.488281 1246.351562 1224.738281 1246.351562 1224.738281 C 1246.351562 1224.738281 1235.328125 1212.828125 1240.398438 1206.75 C 1245.460938 1200.671875 1254.199219 1208.269531 1257.511719 1211.558594 Z M 1816.980469 1510.761719 L 1876.769531 1665.828125 C 1876.769531 1665.828125 1879.058594 1673.441406 1873.480469 1676.480469 C 1867.898438 1679.519531 1862.578125 1676.480469 1860.300781 1672.171875 C 1858.019531 1667.859375 1808.359375 1514.320312 1808.359375 1514.320312 C 1808.359375 1514.320312 1807.210938 1507.988281 1811.648438 1506.46875 C 1816.078125 1504.949219 1816.980469 1510.761719 1816.980469 1510.761719 Z M 1460.238281 936.359375 L 1511.421875 1032.640625 C 1511.421875 1032.640625 1513.199219 1039.230469 1506.859375 1043.03125 C 1500.519531 1046.828125 1496.730469 1043.28125 1492.921875 1039.230469 C 1489.121094 1035.179688 1448.328125 940.921875 1448.328125 940.921875 C 1448.328125 940.921875 1447.320312 933.441406 1453.398438 932.558594 C 1459.480469 931.671875 1460.238281 936.359375 1460.238281 936.359375 Z M 1383.21875 1152.21875 L 1599.609375 1456.269531 C 1599.609375 1456.269531 1604.421875 1464.640625 1600.359375 1472.488281 C 1596.308594 1480.339844 1584.910156 1474.261719 1583.140625 1472.230469 C 1581.359375 1470.210938 1372.828125 1166.160156 1372.828125 1166.160156 C 1372.828125 1166.160156 1363.949219 1154.378906 1371.429688 1148.429688 C 1378.910156 1142.46875 1383.21875 1152.21875 1383.21875 1152.21875 Z M 1649.921875 1473.109375 L 1777.621094 1668.71875 C 1777.621094 1668.71875 1780.148438 1676.828125 1771.539062 1681.898438 C 1762.921875 1686.960938 1757.859375 1678.339844 1753.800781 1672.769531 C 1749.75 1667.199219 1636.738281 1477.171875 1636.738281 1477.171875 C 1636.738281 1477.171875 1633.058594 1469.191406 1638.769531 1467.289062 C 1644.46875 1465.378906 1648.648438 1470.328125 1649.921875 1473.109375 Z M 1608.878906 1198.949219 L 1742.671875 1463.988281 C 1742.671875 1463.988281 1749.25 1473.109375 1738.109375 1479.699219 C 1726.960938 1486.28125 1722.398438 1479.191406 1715.300781 1468.550781 C 1708.210938 1457.910156 1595.449219 1204.28125 1595.449219 1204.28125 C 1595.449219 1204.28125 1592.910156 1195.660156 1598.488281 1193.128906 C 1604.058594 1190.601562 1608.878906 1198.949219 1608.878906 1198.949219 Z M 1351.941406 500.378906 C 1345.128906 503.371094 1338.308594 506.328125 1331.550781 509.410156 C 1352.050781 574.089844 1383.679688 668.828125 1394.640625 674.148438 C 1411.359375 682.261719 1411.359375 663 1411.359375 659.449219 C 1411.359375 657.050781 1375.191406 561.539062 1351.941406 500.378906 Z M 1116.339844 658.230469 L 1508.570312 1254.171875 C 1508.570312 1254.171875 1514.648438 1262.78125 1507.550781 1271.398438 C 1500.460938 1280.019531 1490.320312 1261.769531 1490.320312 1261.769531 L 1108.738281 671.921875 C 1108.738281 671.921875 1098.851562 658.488281 1104.171875 652.410156 C 1109.5 646.328125 1116.339844 658.230469 1116.339844 658.230469 Z M 2179.769531 1279.238281 L 2099.699219 1733.289062 C 2099.699219 1733.289062 2097.171875 1749 2082.46875 1746.460938 C 2067.78125 1743.929688 2071.328125 1728.730469 2073.351562 1719.601562 C 2075.378906 1710.488281 2157.46875 1277.21875 2157.46875 1277.21875 C 2157.46875 1277.21875 2160.761719 1258.480469 2171.660156 1258.21875 C 2182.550781 1257.96875 2179.769531 1279.238281 2179.769531 1279.238281 Z M 1257.839844 545.210938 C 1248.070312 550.261719 1238.339844 555.359375 1228.691406 560.601562 L 1347.941406 803.648438 C 1347.941406 803.648438 1359.589844 823.410156 1375.808594 817.828125 C 1392.03125 812.261719 1384.421875 793 1384.421875 793 Z M 2033.070312 1327.359375 L 2035.101562 1940.03125 C 2035.101562 1940.03125 2035.359375 1948.390625 2028.769531 1948.640625 C 2022.179688 1948.898438 2018.628906 1944.078125 2018.378906 1939.269531 C 2018.121094 1934.449219 2024.210938 1326.859375 2024.210938 1326.859375 C 2024.210938 1326.859375 2031.050781 1319.769531 2033.070312 1327.359375 Z M 1488.289062 673.640625 L 1738.628906 1321.261719 C 1738.628906 1321.261719 1745.21875 1335.96875 1736.101562 1339.511719 C 1726.980469 1343.058594 1723.941406 1335.960938 1717.859375 1324.808594 C 1711.78125 1313.671875 1472.078125 679.210938 1472.078125 679.210938 C 1472.078125 679.210938 1475.121094 659.960938 1488.289062 673.640625 Z M 1487.878906 447.820312 C 1480.269531 450.378906 1472.699219 453.058594 1465.140625 455.71875 C 1531.71875 661.910156 1629.359375 958.71875 1639.28125 957.398438 C 1654.488281 955.371094 1652.460938 941.179688 1652.460938 941.179688 Z M 1931.671875 1335.929688 L 1993.5 1819.371094 C 1993.5 1819.371094 1998.570312 1832.039062 1986.910156 1835.078125 C 1975.261719 1838.121094 1973.230469 1824.949219 1972.21875 1815.820312 C 1971.199219 1806.699219 1924.578125 1339.988281 1924.578125 1339.988281 C 1924.578125 1339.988281 1926.609375 1329.339844 1931.671875 1335.929688 Z M 2134.558594 367.730469 C 2132.890625 367.601562 2131.210938 367.539062 2129.539062 367.421875 C 2109.140625 655.691406 2069.828125 1211.851562 2069.789062 1216.488281 C 2069.730469 1222.761719 2071.339844 1239.378906 2084.859375 1240.320312 C 2098.378906 1241.261719 2096.328125 1221.511719 2096.328125 1221.511719 C 2100.441406 1186.460938 2122.949219 649.339844 2134.558594 367.730469 Z M 1622.160156 619.671875 C 1622.160156 619.671875 1881.371094 1490.78125 1877.570312 1515.101562 C 1873.769531 1539.421875 1850.199219 1524.21875 1847.160156 1512.058594 C 1844.121094 1499.898438 1606.949219 602.191406 1606.949219 602.191406 C 1606.949219 602.191406 1616.839844 593.828125 1622.160156 619.671875 Z M 1687.230469 394.789062 C 1684.269531 395.378906 1681.28125 395.910156 1678.320312 396.511719 C 1676.820312 398.359375 1675.800781 400.160156 1675.800781 400.160156 C 1675.800781 400.160156 1780.191406 943.898438 1782.71875 956.058594 C 1785.261719 968.21875 1799.449219 972.78125 1800.960938 964.171875 C 1802.480469 955.558594 1688.46875 397.621094 1688.46875 397.621094 C 1688.089844 396.449219 1687.679688 395.519531 1687.230469 394.789062 Z M 1962.71875 731.050781 C 1962.71875 731.050781 1978.78125 1275.300781 1974.949219 1291.519531 C 1971.121094 1307.738281 1958.390625 1298.621094 1957.050781 1284.429688 C 1955.71875 1270.238281 1949.148438 733.839844 1952.5 732.570312 C 1955.859375 731.308594 1956.78125 728.011719 1962.71875 731.050781 Z M 1842.660156 371.429688 C 1833.949219 372.308594 1825.300781 373.371094 1816.628906 374.378906 C 1823.449219 560.199219 1848.878906 1025.980469 1848.878906 1052.328125 C 1848.878906 1084.761719 1854.960938 1109.078125 1869.140625 1089.820312 C 1880.398438 1074.550781 1854.050781 576.808594 1842.660156 371.429688 Z M 722.378906 2112.101562 C 712.960938 2112.101562 705.332031 2119.738281 705.332031 2129.148438 C 705.332031 2138.570312 712.960938 2146.199219 722.378906 2146.199219 C 731.796875 2146.199219 739.429688 2138.570312 739.429688 2129.148438 C 739.429688 2119.738281 731.796875 2112.101562 722.378906 2112.101562 Z M 773.398438 2669.859375 C 746.738281 2669.859375 725.128906 2691.460938 725.128906 2718.121094 C 725.128906 2744.78125 746.738281 2766.390625 773.398438 2766.390625 C 800.054688 2766.390625 821.664062 2744.78125 821.664062 2718.121094 C 821.664062 2691.460938 800.054688 2669.859375 773.398438 2669.859375 Z M 3254.449219 1680.679688 C 3227.789062 1680.679688 3206.179688 1702.289062 3206.179688 1728.941406 C 3206.179688 1755.601562 3227.789062 1777.210938 3254.449219 1777.210938 C 3281.109375 1777.210938 3302.71875 1755.601562 3302.71875 1728.941406 C 3302.71875 1702.289062 3281.109375 1680.679688 3254.449219 1680.679688 Z M 3176.011719 1351.089844 C 3156.851562 1351.089844 3141.320312 1366.609375 3141.320312 1385.769531 C 3141.320312 1404.929688 3156.851562 1420.460938 3176.011719 1420.460938 C 3195.171875 1420.460938 3210.691406 1404.929688 3210.691406 1385.769531 C 3210.691406 1366.609375 3195.171875 1351.089844 3176.011719 1351.089844 Z M 2936.148438 2404.011719 C 2917.851562 2404.011719 2903.011719 2418.839844 2903.011719 2437.148438 C 2903.011719 2455.449219 2917.851562 2470.289062 2936.148438 2470.289062 C 2954.460938 2470.289062 2969.289062 2455.449219 2969.289062 2437.148438 C 2969.289062 2418.839844 2954.460938 2404.011719 2936.148438 2404.011719 Z M 1826.839844 3018.128906 C 1808.539062 3018.128906 1793.699219 3032.96875 1793.699219 3051.269531 C 1793.699219 3069.570312 1808.539062 3084.410156 1826.839844 3084.410156 C 1845.140625 3084.410156 1859.980469 3069.570312 1859.980469 3051.269531 C 1859.980469 3032.96875 1845.140625 3018.128906 1826.839844 3018.128906 Z M 3425.480469 2490.75 C 3407.179688 2490.75 3392.339844 2505.589844 3392.339844 2523.898438 C 3392.339844 2542.199219 3407.179688 2557.039062 3425.480469 2557.039062 C 3443.789062 2557.039062 3458.621094 2542.199219 3458.621094 2523.898438 C 3458.621094 2505.589844 3443.789062 2490.75 3425.480469 2490.75 Z M 2039.691406 652.660156 C 2023.429688 652.660156 2010.238281 665.851562 2010.238281 682.121094 C 2010.238281 698.390625 2023.429688 711.570312 2039.691406 711.570312 C 2055.960938 711.570312 2069.140625 698.390625 2069.140625 682.121094 C 2069.140625 665.851562 2055.960938 652.660156 2039.691406 652.660156 Z M 3507.238281 1690.488281 C 3490.96875 1690.488281 3477.789062 1703.671875 3477.789062 1719.941406 C 3477.789062 1736.210938 3490.96875 1749.398438 3507.238281 1749.398438 C 3523.511719 1749.398438 3536.699219 1736.210938 3536.699219 1719.941406 C 3536.699219 1703.671875 3523.511719 1690.488281 3507.238281 1690.488281 Z M 2982.121094 2172.199219 C 2968.648438 2172.199219 2957.738281 2183.109375 2957.738281 2196.578125 C 2957.738281 2210.050781 2968.648438 2220.96875 2982.121094 2220.96875 C 2995.589844 2220.96875 3006.5 2210.050781 3006.5 2196.578125 C 3006.5 2183.109375 2995.589844 2172.199219 2982.121094 2172.199219 Z M 2945.710938 1977.058594 C 2932.800781 1977.058594 2922.328125 1987.519531 2922.328125 2000.429688 C 2922.328125 2013.339844 2932.800781 2023.800781 2945.710938 2023.800781 C 2958.609375 2023.800781 2969.078125 2013.339844 2969.078125 2000.429688 C 2969.078125 1987.519531 2958.609375 1977.058594 2945.710938 1977.058594 Z M 3375.761719 1439.5 C 3361.648438 1439.5 3350.199219 1450.941406 3350.199219 1465.058594 C 3350.199219 1479.171875 3361.648438 1490.609375 3375.761719 1490.609375 C 3389.871094 1490.609375 3401.308594 1479.171875 3401.308594 1465.058594 C 3401.308594 1450.941406 3389.871094 1439.5 3375.761719 1439.5 Z M 2001.960938 363.121094 C 1989.148438 363.179688 1976.378906 363.351562 1963.648438 363.699219 C 1958.46875 450.109375 1955 523.539062 1957.328125 534.421875 C 1963.410156 562.800781 2003.949219 561.789062 2008 536.449219 C 2009.570312 526.609375 2006.421875 451.429688 2001.960938 363.121094 "/>
</clipPath>
<linearGradient id="linear-pattern-0" gradientUnits="userSpaceOnUse" x1="-0.452699" y1="0" x2="1.345973" y2="0" gradientTransform="matrix(744, -2160, 2160, 744, 1768.46, 2971.71)">
<stop offset="0" stop-color="rgb(31.071472%, 74.612427%, 92.958069%)" stop-opacity="1"/>
<stop offset="0.25" stop-color="rgb(31.071472%, 74.612427%, 92.958069%)" stop-opacity="1"/>
<stop offset="0.253906" stop-color="rgb(31.007385%, 74.143982%, 92.883301%)" stop-opacity="1"/>
<stop offset="0.257812" stop-color="rgb(30.941772%, 73.675537%, 92.807007%)" stop-opacity="1"/>
<stop offset="0.261719" stop-color="rgb(30.97229%, 73.109436%, 92.633057%)" stop-opacity="1"/>
<stop offset="0.265625" stop-color="rgb(31.004333%, 72.541809%, 92.456055%)" stop-opacity="1"/>
<stop offset="0.269531" stop-color="rgb(31.004333%, 71.961975%, 92.170715%)" stop-opacity="1"/>
<stop offset="0.273438" stop-color="rgb(31.004333%, 71.383667%, 91.885376%)" stop-opacity="1"/>
<stop offset="0.277344" stop-color="rgb(30.986023%, 70.843506%, 91.566467%)" stop-opacity="1"/>
<stop offset="0.28125" stop-color="rgb(30.967712%, 70.303345%, 91.249084%)" stop-opacity="1"/>
<stop offset="0.285156" stop-color="rgb(31.039429%, 69.86084%, 90.977478%)" stop-opacity="1"/>
<stop offset="0.289062" stop-color="rgb(31.112671%, 69.416809%, 90.707397%)" stop-opacity="1"/>
<stop offset="0.292969" stop-color="rgb(31.187439%, 68.95752%, 90.426636%)" stop-opacity="1"/>
<stop offset="0.296875" stop-color="rgb(31.262207%, 68.49823%, 90.145874%)" stop-opacity="1"/>
<stop offset="0.300781" stop-color="rgb(31.352234%, 67.944336%, 89.807129%)" stop-opacity="1"/>
<stop offset="0.304688" stop-color="rgb(31.443787%, 67.388916%, 89.468384%)" stop-opacity="1"/>
<stop offset="0.308594" stop-color="rgb(31.533813%, 66.833496%, 89.129639%)" stop-opacity="1"/>
<stop offset="0.3125" stop-color="rgb(31.625366%, 66.278076%, 88.790894%)" stop-opacity="1"/>
<stop offset="0.316406" stop-color="rgb(31.700134%, 65.821838%, 88.511658%)" stop-opacity="1"/>
<stop offset="0.320312" stop-color="rgb(31.774902%, 65.364075%, 88.230896%)" stop-opacity="1"/>
<stop offset="0.324219" stop-color="rgb(31.846619%, 64.920044%, 87.960815%)" stop-opacity="1"/>
<stop offset="0.328125" stop-color="rgb(31.919861%, 64.476013%, 87.689209%)" stop-opacity="1"/>
<stop offset="0.332031" stop-color="rgb(32.002258%, 63.963318%, 87.376404%)" stop-opacity="1"/>
<stop offset="0.335938" stop-color="rgb(32.086182%, 63.450623%, 87.063599%)" stop-opacity="1"/>
<stop offset="0.339844" stop-color="rgb(32.25708%, 62.913513%, 86.727905%)" stop-opacity="1"/>
<stop offset="0.34375" stop-color="rgb(32.426453%, 62.374878%, 86.392212%)" stop-opacity="1"/>
<stop offset="0.347656" stop-color="rgb(32.679749%, 61.853027%, 86.061096%)" stop-opacity="1"/>
<stop offset="0.351562" stop-color="rgb(32.931519%, 61.329651%, 85.728455%)" stop-opacity="1"/>
<stop offset="0.355469" stop-color="rgb(33.178711%, 60.832214%, 85.412598%)" stop-opacity="1"/>
<stop offset="0.359375" stop-color="rgb(33.425903%, 60.3302%, 85.095215%)" stop-opacity="1"/>
<stop offset="0.363281" stop-color="rgb(33.64563%, 59.901428%, 84.823608%)" stop-opacity="1"/>
<stop offset="0.367188" stop-color="rgb(33.862305%, 59.469604%, 84.550476%)" stop-opacity="1"/>
<stop offset="0.371094" stop-color="rgb(33.950806%, 58.909607%, 84.210205%)" stop-opacity="1"/>
<stop offset="0.375" stop-color="rgb(34.037781%, 58.348083%, 83.869934%)" stop-opacity="1"/>
<stop offset="0.378906" stop-color="rgb(34.281921%, 57.817078%, 83.537292%)" stop-opacity="1"/>
<stop offset="0.382812" stop-color="rgb(34.524536%, 57.281494%, 83.203125%)" stop-opacity="1"/>
<stop offset="0.386719" stop-color="rgb(34.770203%, 56.747437%, 82.868958%)" stop-opacity="1"/>
<stop offset="0.390625" stop-color="rgb(35.015869%, 56.210327%, 82.53479%)" stop-opacity="1"/>
<stop offset="0.394531" stop-color="rgb(35.26001%, 55.671692%, 82.199097%)" stop-opacity="1"/>
<stop offset="0.398438" stop-color="rgb(35.50415%, 55.131531%, 81.864929%)" stop-opacity="1"/>
<stop offset="0.402344" stop-color="rgb(35.748291%, 54.59137%, 81.530762%)" stop-opacity="1"/>
<stop offset="0.40625" stop-color="rgb(35.98938%, 54.048157%, 81.195068%)" stop-opacity="1"/>
<stop offset="0.410156" stop-color="rgb(36.294556%, 53.565979%, 80.892944%)" stop-opacity="1"/>
<stop offset="0.414063" stop-color="rgb(36.598206%, 53.079224%, 80.589294%)" stop-opacity="1"/>
<stop offset="0.417969" stop-color="rgb(36.932373%, 52.624512%, 80.302429%)" stop-opacity="1"/>
<stop offset="0.421875" stop-color="rgb(37.266541%, 52.165222%, 80.015564%)" stop-opacity="1"/>
<stop offset="0.425781" stop-color="rgb(37.535095%, 51.615906%, 79.679871%)" stop-opacity="1"/>
<stop offset="0.429688" stop-color="rgb(37.802124%, 51.066589%, 79.342651%)" stop-opacity="1"/>
<stop offset="0.433594" stop-color="rgb(38.182068%, 50.535583%, 79.014587%)" stop-opacity="1"/>
<stop offset="0.4375" stop-color="rgb(38.560486%, 50%, 78.684998%)" stop-opacity="1"/>
<stop offset="0.441406" stop-color="rgb(38.778687%, 49.555969%, 78.414917%)" stop-opacity="1"/>
<stop offset="0.445313" stop-color="rgb(38.996887%, 49.110413%, 78.144836%)" stop-opacity="1"/>
<stop offset="0.449219" stop-color="rgb(39.228821%, 48.554993%, 77.812195%)" stop-opacity="1"/>
<stop offset="0.453125" stop-color="rgb(39.459229%, 47.998047%, 77.476501%)" stop-opacity="1"/>
<stop offset="0.457031" stop-color="rgb(39.801025%, 47.537231%, 77.19574%)" stop-opacity="1"/>
<stop offset="0.460938" stop-color="rgb(40.141296%, 47.071838%, 76.913452%)" stop-opacity="1"/>
<stop offset="0.464844" stop-color="rgb(40.414429%, 46.54541%, 76.597595%)" stop-opacity="1"/>
<stop offset="0.46875" stop-color="rgb(40.686035%, 46.01593%, 76.281738%)" stop-opacity="1"/>
<stop offset="0.472656" stop-color="rgb(40.905762%, 45.504761%, 75.978088%)" stop-opacity="1"/>
<stop offset="0.476563" stop-color="rgb(41.123962%, 44.995117%, 75.674438%)" stop-opacity="1"/>
<stop offset="0.480469" stop-color="rgb(41.33606%, 44.535828%, 75.402832%)" stop-opacity="1"/>
<stop offset="0.484375" stop-color="rgb(41.545105%, 44.075012%, 75.1297%)" stop-opacity="1"/>
<stop offset="0.488281" stop-color="rgb(41.798401%, 43.615723%, 74.858093%)" stop-opacity="1"/>
<stop offset="0.492188" stop-color="rgb(42.050171%, 43.154907%, 74.586487%)" stop-opacity="1"/>
<stop offset="0.496094" stop-color="rgb(42.384338%, 42.697144%, 74.316406%)" stop-opacity="1"/>
<stop offset="0.5" stop-color="rgb(42.71698%, 42.236328%, 74.0448%)" stop-opacity="1"/>
<stop offset="0.503906" stop-color="rgb(42.927551%, 41.772461%, 73.773193%)" stop-opacity="1"/>
<stop offset="0.507812" stop-color="rgb(43.136597%, 41.307068%, 73.501587%)" stop-opacity="1"/>
<stop offset="0.511719" stop-color="rgb(43.476868%, 40.959167%, 73.298645%)" stop-opacity="1"/>
<stop offset="0.515625" stop-color="rgb(43.814087%, 40.609741%, 73.095703%)" stop-opacity="1"/>
<stop offset="0.519531" stop-color="rgb(44.165039%, 40.153503%, 72.8302%)" stop-opacity="1"/>
<stop offset="0.523438" stop-color="rgb(44.512939%, 39.692688%, 72.564697%)" stop-opacity="1"/>
<stop offset="0.527344" stop-color="rgb(44.862366%, 39.21814%, 72.291565%)" stop-opacity="1"/>
<stop offset="0.53125" stop-color="rgb(45.20874%, 38.74054%, 72.018433%)" stop-opacity="1"/>
<stop offset="0.535156" stop-color="rgb(45.547485%, 38.337708%, 71.788025%)" stop-opacity="1"/>
<stop offset="0.539063" stop-color="rgb(45.884705%, 37.931824%, 71.557617%)" stop-opacity="1"/>
<stop offset="0.542969" stop-color="rgb(46.21582%, 37.57019%, 71.351624%)" stop-opacity="1"/>
<stop offset="0.546875" stop-color="rgb(46.54541%, 37.203979%, 71.14563%)" stop-opacity="1"/>
<stop offset="0.550781" stop-color="rgb(46.875%, 36.837769%, 70.941162%)" stop-opacity="1"/>
<stop offset="0.554688" stop-color="rgb(47.203064%, 36.468506%, 70.733643%)" stop-opacity="1"/>
<stop offset="0.558594" stop-color="rgb(47.567749%, 36.097717%, 70.527649%)" stop-opacity="1"/>
<stop offset="0.5625" stop-color="rgb(47.929382%, 35.725403%, 70.321655%)" stop-opacity="1"/>
<stop offset="0.566406" stop-color="rgb(48.384094%, 35.333252%, 70.106506%)" stop-opacity="1"/>
<stop offset="0.570313" stop-color="rgb(48.83728%, 34.938049%, 69.891357%)" stop-opacity="1"/>
<stop offset="0.574219" stop-color="rgb(49.171448%, 34.436035%, 69.613647%)" stop-opacity="1"/>
<stop offset="0.578125" stop-color="rgb(49.505615%, 33.929443%, 69.334412%)" stop-opacity="1"/>
<stop offset="0.582031" stop-color="rgb(49.958801%, 33.66394%, 69.195557%)" stop-opacity="1"/>
<stop offset="0.585938" stop-color="rgb(50.408936%, 33.395386%, 69.055176%)" stop-opacity="1"/>
<stop offset="0.589844" stop-color="rgb(50.869751%, 33.021545%, 68.856812%)" stop-opacity="1"/>
<stop offset="0.59375" stop-color="rgb(51.329041%, 32.643127%, 68.656921%)" stop-opacity="1"/>
<stop offset="0.597656" stop-color="rgb(51.789856%, 32.246399%, 68.447876%)" stop-opacity="1"/>
<stop offset="0.601562" stop-color="rgb(52.24762%, 31.843567%, 68.237305%)" stop-opacity="1"/>
<stop offset="0.605469" stop-color="rgb(52.697754%, 31.517029%, 68.069458%)" stop-opacity="1"/>
<stop offset="0.609375" stop-color="rgb(53.147888%, 31.187439%, 67.900085%)" stop-opacity="1"/>
<stop offset="0.613281" stop-color="rgb(53.598022%, 30.847168%, 67.726135%)" stop-opacity="1"/>
<stop offset="0.617188" stop-color="rgb(54.046631%, 30.503845%, 67.552185%)" stop-opacity="1"/>
<stop offset="0.621094" stop-color="rgb(54.492188%, 30.178833%, 67.38739%)" stop-opacity="1"/>
<stop offset="0.625" stop-color="rgb(54.936218%, 29.850769%, 67.224121%)" stop-opacity="1"/>
<stop offset="0.628906" stop-color="rgb(55.371094%, 29.666138%, 67.137146%)" stop-opacity="1"/>
<stop offset="0.632812" stop-color="rgb(55.804443%, 29.478455%, 67.050171%)" stop-opacity="1"/>
<stop offset="0.636719" stop-color="rgb(56.257629%, 29.176331%, 66.902161%)" stop-opacity="1"/>
<stop offset="0.640625" stop-color="rgb(56.707764%, 28.871155%, 66.75415%)" stop-opacity="1"/>
<stop offset="0.644531" stop-color="rgb(57.292175%, 28.433228%, 66.539001%)" stop-opacity="1"/>
<stop offset="0.648438" stop-color="rgb(57.876587%, 27.992249%, 66.323853%)" stop-opacity="1"/>
<stop offset="0.652344" stop-color="rgb(58.44574%, 27.80304%, 66.244507%)" stop-opacity="1"/>
<stop offset="0.65625" stop-color="rgb(59.014893%, 27.610779%, 66.163635%)" stop-opacity="1"/>
<stop offset="0.660156" stop-color="rgb(59.588623%, 27.319336%, 66.030884%)" stop-opacity="1"/>
<stop offset="0.664063" stop-color="rgb(60.159302%, 27.024841%, 65.898132%)" stop-opacity="1"/>
<stop offset="0.667969" stop-color="rgb(60.726929%, 26.799011%, 65.802002%)" stop-opacity="1"/>
<stop offset="0.671875" stop-color="rgb(61.29303%, 26.571655%, 65.705872%)" stop-opacity="1"/>
<stop offset="0.675781" stop-color="rgb(61.781311%, 26.315308%, 65.591431%)" stop-opacity="1"/>
<stop offset="0.679688" stop-color="rgb(62.268066%, 26.055908%, 65.475464%)" stop-opacity="1"/>
<stop offset="0.683594" stop-color="rgb(62.753296%, 25.794983%, 65.361023%)" stop-opacity="1"/>
<stop offset="0.6875" stop-color="rgb(63.240051%, 25.532532%, 65.245056%)" stop-opacity="1"/>
<stop offset="0.691406" stop-color="rgb(63.75885%, 25.302124%, 65.1474%)" stop-opacity="1"/>
<stop offset="0.695312" stop-color="rgb(64.277649%, 25.068665%, 65.049744%)" stop-opacity="1"/>
<stop offset="0.699219" stop-color="rgb(64.726257%, 24.769592%, 64.915466%)" stop-opacity="1"/>
<stop offset="0.703125" stop-color="rgb(65.17334%, 24.467468%, 64.779663%)" stop-opacity="1"/>
<stop offset="0.707031" stop-color="rgb(65.725708%, 24.269104%, 64.703369%)" stop-opacity="1"/>
<stop offset="0.710938" stop-color="rgb(66.27655%, 24.069214%, 64.625549%)" stop-opacity="1"/>
<stop offset="0.714844" stop-color="rgb(66.694641%, 23.884583%, 64.550781%)" stop-opacity="1"/>
<stop offset="0.71875" stop-color="rgb(67.112732%, 23.696899%, 64.474487%)" stop-opacity="1"/>
<stop offset="0.722656" stop-color="rgb(67.658997%, 23.362732%, 64.329529%)" stop-opacity="1"/>
<stop offset="0.726563" stop-color="rgb(68.203735%, 23.025513%, 64.186096%)" stop-opacity="1"/>
<stop offset="0.730469" stop-color="rgb(68.757629%, 22.789001%, 64.091492%)" stop-opacity="1"/>
<stop offset="0.734375" stop-color="rgb(69.311523%, 22.549438%, 63.998413%)" stop-opacity="1"/>
<stop offset="0.738281" stop-color="rgb(69.863892%, 22.338867%, 63.920593%)" stop-opacity="1"/>
<stop offset="0.742188" stop-color="rgb(70.41626%, 22.128296%, 63.841248%)" stop-opacity="1"/>
<stop offset="0.746094" stop-color="rgb(70.968628%, 21.995544%, 63.801575%)" stop-opacity="1"/>
<stop offset="0.75" stop-color="rgb(71.51947%, 21.859741%, 63.761902%)" stop-opacity="1"/>
<stop offset="0.753906" stop-color="rgb(72.125244%, 21.730042%, 63.728333%)" stop-opacity="1"/>
<stop offset="0.757812" stop-color="rgb(72.731018%, 21.59729%, 63.691711%)" stop-opacity="1"/>
<stop offset="0.761719" stop-color="rgb(73.382568%, 21.409607%, 63.632202%)" stop-opacity="1"/>
<stop offset="0.765625" stop-color="rgb(74.032593%, 21.221924%, 63.571167%)" stop-opacity="1"/>
<stop offset="0.769531" stop-color="rgb(74.583435%, 21.134949%, 63.555908%)" stop-opacity="1"/>
<stop offset="0.773438" stop-color="rgb(75.132751%, 21.046448%, 63.540649%)" stop-opacity="1"/>
<stop offset="0.777344" stop-color="rgb(75.680542%, 20.828247%, 63.461304%)" stop-opacity="1"/>
<stop offset="0.78125" stop-color="rgb(76.228333%, 20.606995%, 63.380432%)" stop-opacity="1"/>
<stop offset="0.785156" stop-color="rgb(76.774597%, 20.384216%, 63.301086%)" stop-opacity="1"/>
<stop offset="0.789062" stop-color="rgb(77.320862%, 20.161438%, 63.220215%)" stop-opacity="1"/>
<stop offset="0.792969" stop-color="rgb(77.990723%, 20.059204%, 63.204956%)" stop-opacity="1"/>
<stop offset="0.796875" stop-color="rgb(78.659058%, 19.955444%, 63.188171%)" stop-opacity="1"/>
<stop offset="0.800781" stop-color="rgb(79.240417%, 19.764709%, 63.12561%)" stop-opacity="1"/>
<stop offset="0.804688" stop-color="rgb(79.818726%, 19.572449%, 63.063049%)" stop-opacity="1"/>
<stop offset="0.808594" stop-color="rgb(80.026245%, 19.485474%, 63.032532%)" stop-opacity="1"/>
<stop offset="0.8125" stop-color="rgb(80.230713%, 19.400024%, 63.002014%)" stop-opacity="1"/>
<stop offset="0.875" stop-color="rgb(80.230713%, 19.400024%, 63.002014%)" stop-opacity="1"/>
<stop offset="1" stop-color="rgb(80.230713%, 19.400024%, 63.002014%)" stop-opacity="1"/>
</linearGradient>
</defs>
<rect x="-400" y="-400" width="4800" height="4800" fill="rgb(9.346008%, 7.409668%, 7.86438%)" fill-opacity="1"/>
<path fill-rule="evenodd" fill="rgb(9.745789%, 7.537842%, 8.2901%)" fill-opacity="1" d="M 1019.191406 0 L 2980.808594 0 C 3423.078125 217.300781 3782.679688 576.960938 4000 1019.191406 L 4000 2980.808594 C 3782.699219 3423.078125 3423.039062 3782.679688 2980.808594 4000 L 1019.191406 4000 C 576.925781 3782.699219 217.320312 3423.039062 0 2980.808594 L 0 1019.191406 C 217.320312 576.960938 576.925781 217.300781 1019.191406 0 "/>
<path fill-rule="evenodd" fill="rgb(10.43396%, 7.615662%, 8.686829%)" fill-opacity="1" d="M 2000 347.828125 C 2912.46875 347.828125 3652.171875 1087.53125 3652.171875 2000 C 3652.171875 2912.46875 2912.46875 3652.171875 2000 3652.171875 C 1087.53125 3652.171875 347.828125 2912.46875 347.828125 2000 C 347.828125 1087.53125 1087.53125 347.828125 2000 347.828125 "/>
<path fill-rule="evenodd" fill="rgb(11.358643%, 7.600403%, 9.037781%)" fill-opacity="1" d="M 2000 792.808594 C 2666.710938 792.808594 3207.191406 1333.289062 3207.191406 2000 C 3207.191406 2666.71875 2666.710938 3207.191406 2000 3207.191406 C 1333.289062 3207.191406 792.808594 2666.71875 792.808594 2000 C 792.808594 1333.289062 1333.289062 792.808594 2000 792.808594 "/>
<g clip-path="url(#clip-0)">
<g clip-path="url(#clip-1)">
<path fill-rule="nonzero" fill="url(#linear-pattern-0)" d="M -484.105469 3289.667969 L 3306.910156 4595.464844 L 4645.125 710.332031 L 854.105469 -595.464844 Z M -484.105469 3289.667969 "/>
</g>
</g>
</svg>
